<svg width="143" height="19" viewBox="0 0 143 19" fill="none" xmlns="http://www.w3.org/2000/svg">
<path d="M2.19599 0.314916H0V18.6851H2.19599V4.33011L8.44411 14.5124L14.6922 4.30387V18.6851H16.8882V0.314916H14.7707L8.49639 10.576L2.19599 0.314916Z" fill="white"/>
<path d="M34.6018 0.314916V18.6851H36.7978V0.314916H34.6018Z" fill="white"/>
<path d="M54.8981 0.314916V18.6851H57.0941V0.314916H54.8981Z" fill="white"/>
<path d="M83.2465 13.9876C83.2465 14.4862 83.1419 14.9061 82.9589 15.2735C82.7498 15.6409 82.5145 15.9296 82.2008 16.1657C81.887 16.4282 81.521 16.6119 81.1028 16.7169C80.6845 16.8481 80.2662 16.9006 79.8479 16.9006C79.3251 16.9006 78.8545 16.8218 78.4362 16.6644C78.0179 16.5069 77.6258 16.297 77.3121 16.0345C76.9722 15.7721 76.6846 15.4834 76.4232 15.1423C76.1618 14.8011 75.9788 14.4337 75.8219 14.0663L73.9919 15.1685C74.2011 15.6409 74.4625 16.1133 74.8285 16.5856C75.1684 17.058 75.5866 17.4517 76.0834 17.8191C76.5539 18.1865 77.1291 18.4751 77.7565 18.6851C78.3839 18.895 79.0898 19 79.8741 19C80.6583 19 81.3903 18.895 82.07 18.6588C82.7498 18.4227 83.351 18.0815 83.8739 17.6354C84.3706 17.1892 84.7627 16.6381 85.0503 16.0083C85.3379 15.3785 85.4947 14.6436 85.4947 13.8301C85.4947 13.1478 85.3902 12.5704 85.181 12.0456C84.9719 11.547 84.6582 11.1008 84.266 10.6809C83.8739 10.2873 83.4033 9.91989 82.8282 9.57873C82.253 9.23757 81.6256 8.89641 80.9459 8.58149C80.3185 8.31906 79.7433 8.03039 79.2466 7.76796C78.7238 7.50552 78.3055 7.24309 77.9656 6.95442C77.5996 6.69199 77.3382 6.37707 77.1552 6.06215C76.9461 5.74724 76.8676 5.35359 76.8676 4.90746C76.8676 4.5663 76.9199 4.22514 77.0506 3.88398C77.1814 3.54282 77.3905 3.2279 77.6519 2.96547C77.9133 2.70304 78.2271 2.49309 78.5931 2.33563C78.9591 2.17818 79.4035 2.09945 79.9263 2.09945C80.3446 2.09945 80.7368 2.17818 81.1028 2.28315C81.4688 2.38812 81.7825 2.54558 82.0962 2.72928C82.4099 2.91298 82.6713 3.12293 82.9066 3.33287C83.1419 3.56906 83.351 3.80525 83.5079 4.01519L85.1549 2.6768C84.9457 2.38812 84.6582 2.0732 84.3445 1.75829C84.0046 1.44337 83.6125 1.1547 83.1942 0.892265C82.7498 0.629834 82.253 0.419889 81.704 0.262431C81.155 0.104973 80.5538 0 79.9263 0C79.0375 0 78.2794 0.157458 77.6258 0.446132C76.9722 0.761049 76.4232 1.12845 76.0049 1.60083C75.5605 2.0732 75.2206 2.62431 75.0115 3.2279C74.7762 3.83149 74.6716 4.43508 74.6716 5.03867C74.6716 5.77348 74.8024 6.42956 75.1161 6.98066C75.4036 7.53177 75.7958 8.00414 76.2664 8.42403C76.7369 8.84392 77.2859 9.21132 77.8872 9.52624C78.4885 9.84116 79.0898 10.1561 79.6911 10.4185C80.1878 10.6809 80.6583 10.9171 81.1028 11.1271C81.521 11.337 81.9132 11.5994 82.2269 11.8619C82.5406 12.1243 82.7759 12.4392 82.9589 12.7804C83.1419 13.1215 83.2465 13.5152 83.2465 13.9876Z" fill="white"/>
<path d="M105.546 2.41436V18.6851H107.742V2.41436H112.997V0.314916H100.291V2.41436H105.546Z" fill="white"/>
<path d="M131.706 11.6257L134.843 3.46409L137.981 11.6257H131.706ZM133.824 0.314916L126.635 18.6851H128.987L130.896 13.7251H138.791L140.699 18.6851H143L135.863 0.314916H133.824Z" fill="white"/>
</svg>
